<svg xmlns="http://www.w3.org/2000/svg" width="512" height="512" viewBox="0 0 512 512">
  <rect width="512" height="512" rx="112" fill="#fb7185"/>
  <path fill="#ffffff" d="M256 400c-8 0-16-3-22-9l-104-104c-40-40-40-104 0-144 38-38 100-40 140-4l-14 14-14-14c40-36 102-34 140 4 40 40 40 104 0 144L278 391c-6 6-14 9-22 9z" opacity="0"/>
  <path fill="#ffffff" d="M256 398c-6.4 0-12.6-2.4-17.4-6.9l-98.7-93.5c-33.9-32.2-35.9-85.6-4.3-119.9 30.9-33.5 83.5-33.9 115.4-2.1l5 5 5-5c31.9-31.8 84.5-31.4 115.4 2.1 31.6 34.3 29.6 87.7-4.3 119.9l-98.7 93.5c-4.8 4.5-11 6.9-17.4 6.9z"/>
</svg>
